<svg width="20" height="20" viewBox="0 0 20 20" fill="none" xmlns="http://www.w3.org/2000/svg">
<path d="M1.15269 8C0.877343 8 0.613277 7.89464 0.418579 7.70711C0.223882 7.51957 0.114502 7.26522 0.114502 7C0.114502 6.73478 0.223882 6.48043 0.418579 6.29289C0.613277 6.10536 0.877343 6 1.15269 6H9.45817C10.0089 6 10.537 5.78929 10.9264 5.41421C11.3158 5.03914 11.5345 4.53043 11.5345 4C11.5345 3.46957 11.3158 2.96086 10.9264 2.58579C10.537 2.21071 10.0089 2 9.45817 2C8.88716 2 8.36807 2.22 7.99432 2.59C7.89984 2.68712 7.78568 2.76454 7.65889 2.81746C7.5321 2.87039 7.39539 2.8977 7.25721 2.8977C7.11903 2.8977 6.98232 2.87039 6.85554 2.81746C6.72875 2.76454 6.61458 2.68712 6.5201 2.59C6.11521 2.2 6.11521 1.56 6.5201 1.17C7.27798 0.45 8.31616 0 9.45817 0C10.5595 0 11.6158 0.421427 12.3946 1.17157C13.1734 1.92172 13.6109 2.93913 13.6109 4C13.6109 5.06087 13.1734 6.07828 12.3946 6.82843C11.6158 7.57857 10.5595 8 9.45817 8H1.15269ZM16.7255 10C17.0008 10 17.2649 9.89464 17.4596 9.70711C17.6543 9.51957 17.7636 9.26522 17.7636 9C17.7636 8.73478 17.6543 8.48043 17.4596 8.29289C17.2649 8.10536 17.0008 8 16.7255 8C16.4348 8 16.1752 8.11 15.9883 8.29C15.8923 8.3827 15.7782 8.45625 15.6526 8.50643C15.527 8.55661 15.3924 8.58244 15.2564 8.58244C15.1205 8.58244 14.9858 8.55661 14.8602 8.50643C14.7346 8.45625 14.6206 8.3827 14.5245 8.29C14.13 7.9 14.13 7.27 14.5245 6.88C15.0851 6.34 15.8638 6 16.7255 6C17.5515 6 18.3437 6.31607 18.9278 6.87868C19.5119 7.44129 19.84 8.20435 19.84 9C19.84 9.79565 19.5119 10.5587 18.9278 11.1213C18.3437 11.6839 17.5515 12 16.7255 12H2.19087C1.91553 12 1.65146 11.8946 1.45676 11.7071C1.26207 11.5196 1.15269 11.2652 1.15269 11C1.15269 10.7348 1.26207 10.4804 1.45676 10.2929C1.65146 10.1054 1.91553 10 2.19087 10H16.7255ZM15.6873 16H1.15269C0.877343 16 0.613277 15.8946 0.418579 15.7071C0.223882 15.5196 0.114502 15.2652 0.114502 15C0.114502 14.7348 0.223882 14.4804 0.418579 14.2929C0.613277 14.1054 0.877343 14 1.15269 14H15.6873C16.5133 14 17.3055 14.3161 17.8896 14.8787C18.4737 15.4413 18.8018 16.2044 18.8018 17C18.8018 17.7956 18.4737 18.5587 17.8896 19.1213C17.3055 19.6839 16.5133 20 15.6873 20C14.8256 20 14.0469 19.66 13.4863 19.12C13.0918 18.73 13.0918 18.1 13.4863 17.71C13.5824 17.6173 13.6965 17.5437 13.822 17.4936C13.9476 17.4434 14.0823 17.4176 14.2182 17.4176C14.3542 17.4176 14.4888 17.4434 14.6144 17.4936C14.74 17.5437 14.8541 17.6173 14.9502 17.71C15.137 17.89 15.3966 18 15.6873 18C15.9626 18 16.2267 17.8946 16.4214 17.7071C16.6161 17.5196 16.7255 17.2652 16.7255 17C16.7255 16.7348 16.6161 16.4804 16.4214 16.2929C16.2267 16.1054 15.9626 16 15.6873 16Z" fill="#5983C1"/>
</svg>
