<svg width="15" height="27" viewBox="0 0 15 27" fill="none" xmlns="http://www.w3.org/2000/svg">
<path fill-rule="evenodd" clip-rule="evenodd" d="M0.314692 0.295281C0.214939 0.388645 0.135797 0.499557 0.0817966 0.621665C0.0277967 0.743773 0 0.874678 0 1.00688C0 1.13908 0.0277967 1.26999 0.0817966 1.3921C0.135797 1.5142 0.214939 1.62512 0.314692 1.71848L12.4123 13.0679L0.314692 24.4173C0.113558 24.606 0.000561714 24.862 0.000561714 25.1289C0.000561714 25.3958 0.113558 25.6518 0.314692 25.8405C0.515826 26.0292 0.788623 26.1353 1.07307 26.1353C1.35752 26.1353 1.63031 26.0292 1.83145 25.8405L14.6853 13.7795C14.7851 13.6861 14.8642 13.5752 14.9182 13.4531C14.9722 13.331 15 13.2001 15 13.0679C15 12.9357 14.9722 12.8048 14.9182 12.6827C14.8642 12.5606 14.7851 12.4497 14.6853 12.3563L1.83145 0.295281C1.73195 0.201681 1.61374 0.12742 1.48361 0.0767509C1.35347 0.0260816 1.21396 0 1.07307 0C0.932176 0 0.792666 0.0260816 0.662532 0.0767509C0.532397 0.12742 0.414193 0.201681 0.314692 0.295281Z" fill="white"/>
</svg>
