<svg width="15" height="27" viewBox="0 0 15 27" fill="none" xmlns="http://www.w3.org/2000/svg">
<path fill-rule="evenodd" clip-rule="evenodd" d="M14.6853 0.295281C14.7851 0.388645 14.8642 0.499557 14.9182 0.621665C14.9722 0.743773 15 0.874678 15 1.00688C15 1.13908 14.9722 1.26999 14.9182 1.3921C14.8642 1.5142 14.7851 1.62512 14.6853 1.71848L2.58768 13.0679L14.6853 24.4173C14.8864 24.606 14.9994 24.862 14.9994 25.1289C14.9994 25.3958 14.8864 25.6518 14.6853 25.8405C14.4842 26.0292 14.2114 26.1353 13.9269 26.1353C13.6425 26.1353 13.3697 26.0292 13.1686 25.8405L0.314691 13.7795C0.214939 13.6861 0.135795 13.5752 0.0817952 13.4531C0.0277951 13.331 0 13.2001 0 13.0679C0 12.9357 0.0277951 12.8048 0.0817952 12.6827C0.135795 12.5606 0.214939 12.4497 0.314691 12.3563L13.1686 0.295281C13.2681 0.201681 13.3863 0.12742 13.5164 0.0767509C13.6465 0.0260816 13.786 0 13.9269 0C14.0678 0 14.2073 0.0260816 14.3375 0.0767509C14.4676 0.12742 14.5858 0.201681 14.6853 0.295281Z" fill="white"/>
</svg>
