<svg width="12" height="10" viewBox="0 0 12 10" fill="none" xmlns="http://www.w3.org/2000/svg">
<path d="M11.7832 1.26963L10.7303 0.216743C10.586 0.0722658 10.4104 0 10.204 0C9.99744 0 9.82186 0.0722658 9.67749 0.216743L4.59871 5.3032L2.32257 3.0193C2.17803 2.87477 2.00256 2.80259 1.79618 2.80259C1.58966 2.80259 1.41419 2.87477 1.26965 3.0193L0.21677 4.07221C0.0722387 4.21672 0 4.39224 0 4.59874C0 4.80507 0.0722387 4.98075 0.21677 5.12523L3.0193 7.92771L4.07227 8.98059C4.21672 9.12518 4.39224 9.19736 4.59871 9.19736C4.80509 9.19736 4.98062 9.12499 5.12515 8.98059L6.17809 7.92771L11.7832 2.32259C11.9276 2.17806 12 2.00256 12 1.79607C12.0001 1.58969 11.9276 1.41416 11.7832 1.26963Z" fill="white"/>
</svg>
