<svg width="24" height="24" viewBox="0 0 24 24" fill="none" xmlns="http://www.w3.org/2000/svg">
<path d="M20 0C21.0609 0 22.0783 0.421427 22.8284 1.17157C23.5786 1.92172 24 2.93913 24 4V20C24 21.0609 23.5786 22.0783 22.8284 22.8284C22.0783 23.5786 21.0609 24 20 24H4C2.93913 24 1.92172 23.5786 1.17157 22.8284C0.421427 22.0783 0 21.0609 0 20V4C0 2.93913 0.421427 1.92172 1.17157 1.17157C1.92172 0.421427 2.93913 0 4 0L20 0ZM16 7.28V4.5H13.71C11.61 4.5 10.29 6.1 10.29 8.39V10.06H8V12.83H10.29V19.5H13.14V12.83H15.43L16 10.06H13.14V8.94C13.14 7.84 13.72 7.28 14.86 7.28H16Z" fill="#797979"/>
</svg>
