<svg width="15" height="18" viewBox="0 0 15 18" fill="none" xmlns="http://www.w3.org/2000/svg">
<path d="M13.3344 8.2C13.0956 7.9 12.8049 7.64 12.535 7.38C11.8394 6.78 11.0504 6.35 10.3859 5.72C8.83903 4.26 8.49643 1.85 9.4827 0C8.49643 0.23 7.63473 0.75 6.89762 1.32C4.20872 3.4 3.14977 7.07 4.41636 10.22C4.45789 10.32 4.49941 10.42 4.49941 10.55C4.49941 10.77 4.34369 10.97 4.13605 11.05C3.89727 11.15 3.6481 11.09 3.45085 10.93C3.39157 10.8828 3.34223 10.8251 3.3055 10.76C2.13235 9.33 1.94548 7.28 2.7345 5.64C1.00073 7 0.0559834 9.3 0.190947 11.47C0.253238 11.97 0.31553 12.47 0.492021 12.97C0.637367 13.57 0.917677 14.17 1.22913 14.7C2.35037 16.43 4.29178 17.67 6.37853 17.92C8.60024 18.19 10.9777 17.8 12.6803 16.32C14.5802 14.66 15.2446 12 14.2687 9.72L14.1338 9.46C13.9158 9 13.3344 8.2 13.3344 8.2ZM10.0537 14.5C9.76301 14.74 9.28545 15 8.9117 15.1C7.74893 15.5 6.58617 14.94 5.90096 14.28C7.1364 14 7.87351 13.12 8.09153 12.23C8.26802 11.43 7.93581 10.77 7.80084 10C7.67626 9.26 7.69702 8.63 7.97733 7.94C8.17459 8.32 8.38223 8.7 8.63139 9C9.43079 10 10.687 10.44 10.9569 11.8C10.9985 11.94 11.0192 12.08 11.0192 12.23C11.0504 13.05 10.6766 13.95 10.0537 14.5Z" fill="#5983C1"/>
</svg>
