<svg width="17" height="22" viewBox="0 0 17 22" fill="none" xmlns="http://www.w3.org/2000/svg">
<path d="M8.45831 0L4.30557 4H7.42012V13H9.49649V4H12.611L8.45831 0ZM14.6874 22H2.2292C1.67851 22 1.15038 21.7893 0.760986 21.4142C0.371592 21.0391 0.152832 20.5304 0.152832 20V8C0.152832 7.46957 0.371592 6.96086 0.760986 6.58579C1.15038 6.21071 1.67851 6 2.2292 6H5.34376V8H2.2292V20H14.6874V8H11.5729V6H14.6874C15.2381 6 15.7662 6.21071 16.1556 6.58579C16.545 6.96086 16.7638 7.46957 16.7638 8V20C16.7638 20.5304 16.545 21.0391 16.1556 21.4142C15.7662 21.7893 15.2381 22 14.6874 22Z" fill="#5983C1"/>
</svg>
