<svg width="19" height="22" viewBox="0 0 19 22" fill="none" xmlns="http://www.w3.org/2000/svg">
<path d="M14.4312 21.9999C13.9951 21.8299 13.6837 21.4499 13.611 20.9999C13.5591 20.7399 13.611 20.5599 14.0263 19.8399C15.5835 17.1399 16.3829 14.0899 16.3414 10.9999C16.3829 7.99989 15.6251 5.06989 14.1301 2.43989C13.9121 1.99989 13.7148 1.57989 13.5487 1.12989C13.611 0.749893 13.8083 0.399893 14.1301 0.189893C14.5973 -0.0501074 15.1683 -0.000107527 15.5939 0.279892C15.8846 0.639892 16.1338 0.999893 16.3414 1.41989C17.4585 3.48079 18.2194 5.70325 18.5943 7.99989C18.8331 9.80989 18.8642 11.6499 18.6877 13.4699C18.3659 15.8099 17.6495 18.0699 16.5491 20.1799C15.8846 21.4599 15.5109 21.9999 15.1164 21.9999H14.4312ZM9.90468 19.7899C9.31291 19.6299 8.93916 19.0499 9.06375 18.4699C9.06375 18.3499 9.38558 17.7999 9.67628 17.2399C10.9013 14.9699 11.4308 12.4099 11.192 9.85989C11.0467 8.02989 10.4964 6.24989 9.59322 4.63989C8.93916 3.37989 8.89764 3.17989 9.28176 2.63989C9.73857 2.14989 10.4964 2.07989 11.0571 2.49989C11.8046 3.55989 12.3963 4.71989 12.8324 5.93989C14.1612 9.72989 13.9536 13.8599 12.251 17.4999C11.3789 19.3899 10.7664 19.9999 9.90468 19.7399V19.7899ZM5.23284 17.5599C5.04799 17.48 4.884 17.3613 4.75288 17.2125C4.62176 17.0637 4.52681 16.8886 4.47497 16.6999C4.47497 16.4999 4.47497 16.2399 4.94215 15.4399C5.70322 14.1108 6.10237 12.6177 6.10237 11.0999C6.10237 9.58206 5.70322 8.08896 4.94215 6.75989C4.26733 5.49989 4.26733 5.23989 4.81757 4.75989C5.01483 4.53989 5.30552 4.42989 5.61697 4.46989C6.28141 4.46989 6.65516 4.77989 7.21578 5.90989C8.0985 7.47101 8.55572 9.22228 8.54465 10.9999C8.58618 12.8099 8.12938 14.6099 7.22616 16.1999C6.66554 17.2499 6.38523 17.4999 5.82461 17.5899C5.62735 17.6099 5.41972 17.5899 5.23284 17.4999V17.5599ZM0.862087 15.4299C0.519486 15.2699 0.249558 14.9999 0.114594 14.6499C0.0107752 14.2999 0.114594 13.9999 0.529868 13.3599C1.04896 12.6799 1.29812 11.8399 1.24622 10.9999C1.31889 10.1499 1.08011 9.30989 0.571395 8.60989C0.399079 8.35779 0.246393 8.09373 0.114594 7.81989C0.000393331 7.18989 0.436431 6.58989 1.15278 6.46989C1.7134 6.36989 2.10791 6.59989 2.627 7.35989C3.36353 8.43948 3.75599 9.70307 3.75599 10.9949C3.75599 12.2867 3.36353 13.5503 2.627 14.6299C2.09753 15.3999 1.49538 15.6299 0.872469 15.4299H0.862087Z" fill="#5983C1"/>
</svg>
