<svg width="21" height="20" viewBox="0 0 21 20" fill="none" xmlns="http://www.w3.org/2000/svg">
<path d="M10.4583 18C15.0263 18 18.7637 14.4 18.7637 10C18.7637 5.6 15.0263 2 10.4583 2C5.89025 2 2.15279 5.6 2.15279 10C2.15279 14.4 5.89025 18 10.4583 18ZM10.4583 0C16.1683 0 20.8401 4.5 20.8401 10C20.8401 15.5 16.1683 20 10.4583 20C4.74825 20 0.076416 15.5 0.076416 10C0.076416 4.5 4.74825 0 10.4583 0ZM10.9774 11H9.42008L5.26734 8.7L6.09789 7.4L9.5239 9.3V5H11.0812V11H10.9774Z" fill="#5983C1"/>
</svg>
