<svg width="23" height="22" viewBox="0 0 23 22" fill="none" xmlns="http://www.w3.org/2000/svg">
<path d="M14.5727 22H12.4963V20H14.5727V22ZM18.7254 20H16.649V22H18.7254V20ZM14.5727 16H12.4963V18H14.5727V16ZM6.26719 20H4.19082V22H6.26719V20ZM6.26719 16H4.19082V18H6.26719V16ZM18.7254 16H16.649V18H18.7254V16ZM14.5727 12H12.4963V14H14.5727V12ZM18.7254 12H16.649V14H18.7254V12ZM20.8018 8C21.3525 8 21.8806 8.21071 22.27 8.58579C22.6594 8.96086 22.8782 9.46957 22.8782 10V22H20.8018V10H10.4199V22H8.34356V14H2.11446V22H0.0380859V14C0.0380859 13.4696 0.256846 12.9609 0.646241 12.5858C1.03564 12.2107 1.56377 12 2.11446 12H8.34356V10C8.34356 9.46957 8.56232 8.96086 8.95172 8.58579C9.34111 8.21071 9.86925 8 10.4199 8V6C10.4199 5.46957 10.6387 4.96086 11.0281 4.58579C11.4175 4.21071 11.9456 4 12.4963 4H14.5727V0H16.649V4H18.7254C19.2761 4 19.8042 4.21071 20.1936 4.58579C20.583 4.96086 20.8018 5.46957 20.8018 6V8ZM18.7254 8V6H12.4963V8H18.7254Z" fill="#5983C1"/>
</svg>
