<svg width="23" height="22" viewBox="0 0 23 22" fill="none" xmlns="http://www.w3.org/2000/svg">
<path d="M11.4581 22H10.4199V15.43C9.30908 16.4 7.82447 17 6.26719 17C2.89309 17 0.0380859 14.25 0.0380859 11V10H6.85896C5.85192 8.93 5.22901 7.5 5.22901 6C5.22901 2.75 8.08402 0 11.4581 0H12.4963V6.57C13.6072 5.6 15.0918 5 16.649 5C20.0231 5 22.8782 7.75 22.8782 11V12H16.0573C17.0643 13.07 17.6872 14.5 17.6872 16C17.6872 19.25 14.8322 22 11.4581 22ZM12.4963 12.13V19.87C14.2612 19.41 15.6109 17.83 15.6109 16C15.6109 14.17 14.2612 12.59 12.4963 12.13ZM2.24942 12C2.72698 13.7 4.36732 15 6.26719 15C8.16707 15 9.8074 13.7 10.285 12H2.24942ZM12.6313 10H20.6668C20.1893 8.3 18.5385 7 16.649 7C14.7595 7 13.1088 8.3 12.6313 10ZM10.4199 2.13C8.65502 2.59 7.30538 4.18 7.30538 6C7.30538 7.82 8.65502 9.41 10.4199 9.87V2.13Z" fill="#5983C1"/>
</svg>
