<svg width="24" height="24" viewBox="0 0 24 24" fill="none" xmlns="http://www.w3.org/2000/svg">
<path d="M20 0C21.0609 0 22.0783 0.421427 22.8284 1.17157C23.5786 1.92172 24 2.93913 24 4V20C24 21.0609 23.5786 22.0783 22.8284 22.8284C22.0783 23.5786 21.0609 24 20 24H4C2.93913 24 1.92172 23.5786 1.17157 22.8284C0.421427 22.0783 0 21.0609 0 20V4C0 2.93913 0.421427 1.92172 1.17157 1.17157C1.92172 0.421427 2.93913 0 4 0L20 0ZM12.14 4.5C10.8702 4.50045 9.62228 4.8303 8.51811 5.45731C7.41394 6.08433 6.49132 6.98707 5.84039 8.07731C5.18947 9.16756 4.83251 10.408 4.8044 11.6775C4.77629 12.947 5.07798 14.202 5.68 15.32L5.83 15.58L4.5 19.5L8.58 18.2C9.69829 18.8114 10.9559 19.1228 12.2303 19.1038C13.5047 19.0849 14.7524 18.7362 15.852 18.0917C16.9516 17.4473 17.8655 16.529 18.5048 15.4264C19.1441 14.3238 19.487 13.0745 19.5 11.8C19.5 7.77 16.2 4.5 12.14 4.5ZM12.14 5.66C15.55 5.66 18.33 8.42 18.33 11.81C18.3291 12.9039 18.0373 13.978 17.4846 14.922C16.9319 15.8661 16.1381 16.6462 15.1846 17.1825C14.2312 17.7187 13.1522 17.9919 12.0584 17.9739C10.9647 17.9559 9.89531 17.6474 8.96 17.08L8.73 16.93L6.35 17.69L7.12 15.41C6.35686 14.3651 5.94699 13.1039 5.95 11.81C5.95262 10.9997 6.11481 10.1979 6.42731 9.45036C6.7398 8.70278 7.19649 8.02408 7.77128 7.453C8.34608 6.88192 9.02773 6.42964 9.77732 6.122C10.5269 5.81436 11.3297 5.65737 12.14 5.66ZM9.66 8.47C9.56852 8.47351 9.47874 8.49573 9.39618 8.53529C9.31363 8.57485 9.24005 8.6309 9.18 8.7L9.04 8.85C8.84 9.08 8.54 9.5 8.54 10.19C8.54 10.91 8.97 11.6 9.18 11.9L9.32 12.1C10.0627 13.2527 11.1167 14.1715 12.36 14.75L12.76 14.89C14.2 15.43 14.23 15.22 14.53 15.19C14.86 15.16 15.6 14.76 15.75 14.34C15.9 13.92 15.9 13.56 15.85 13.49C15.83 13.44 15.77 13.41 15.7 13.37L14.58 12.83C14.4814 12.7835 14.3814 12.7401 14.28 12.7C14.11 12.64 13.98 12.6 13.87 12.79C13.75 12.97 13.4 13.37 13.3 13.49C13.2 13.59 13.12 13.62 12.98 13.57L12.58 13.39C11.6762 12.9753 10.9295 12.2812 10.45 11.41C10.35 11.23 10.44 11.13 10.53 11.04L10.8 10.73C10.9 10.63 10.92 10.55 10.98 10.43C11.0011 10.3902 11.0129 10.3462 11.0147 10.3011C11.0164 10.2561 11.008 10.2113 10.99 10.17L10.89 9.94L10.41 8.79C10.26 8.43 10.11 8.49 10.01 8.49L9.66 8.47Z" fill="#797979"/>
</svg>
