<svg width="19" height="10" viewBox="0 0 19 10" fill="none" xmlns="http://www.w3.org/2000/svg">
<path fill-rule="evenodd" clip-rule="evenodd" d="M18.6875 4.9999C18.6875 5.13251 18.6184 5.25968 18.4953 5.35345C18.3722 5.44722 18.2053 5.4999 18.0312 5.4999L2.55294 5.4999L6.68338 8.6459C6.8066 8.73979 6.87583 8.86712 6.87583 8.9999C6.87583 9.13267 6.8066 9.26001 6.68338 9.3539C6.56015 9.44779 6.39302 9.50053 6.21875 9.50053C6.04448 9.50053 5.87735 9.44779 5.75412 9.3539L0.504126 5.3539C0.44301 5.30745 0.394524 5.25228 0.361441 5.19153C0.328356 5.13079 0.311327 5.06567 0.311327 4.9999C0.311327 4.93413 0.328356 4.86901 0.361441 4.80827C0.394524 4.74752 0.44301 4.69234 0.504126 4.6459L5.75412 0.645899C5.87735 0.552012 6.04448 0.499268 6.21875 0.499268C6.39302 0.499268 6.56015 0.552012 6.68338 0.645899C6.8066 0.739786 6.87583 0.867123 6.87583 0.999899C6.87583 1.13267 6.8066 1.26001 6.68338 1.3539L2.55294 4.4999L18.0312 4.4999C18.2053 4.4999 18.3722 4.55258 18.4953 4.64635C18.6184 4.74011 18.6875 4.86729 18.6875 4.9999Z" fill="black"/>
</svg>
