<svg width="19" height="10" viewBox="0 0 19 10" fill="none" xmlns="http://www.w3.org/2000/svg">
<path fill-rule="evenodd" clip-rule="evenodd" d="M0.3125 5.0001C0.3125 4.86749 0.38164 4.74032 0.504711 4.64655C0.627782 4.55278 0.794702 4.5001 0.96875 4.5001L16.4471 4.5001L12.3166 1.3541C12.1934 1.26021 12.1242 1.13288 12.1242 1.0001C12.1242 0.867326 12.1934 0.739987 12.3166 0.646101C12.4399 0.552215 12.607 0.49947 12.7812 0.49947C12.9555 0.49947 13.1226 0.552215 13.2459 0.646101L18.4959 4.6461C18.557 4.69255 18.6055 4.74772 18.6386 4.80847C18.6716 4.86921 18.6887 4.93433 18.6887 5.0001C18.6887 5.06587 18.6716 5.13099 18.6386 5.19173C18.6055 5.25248 18.557 5.30766 18.4959 5.3541L13.2459 9.3541C13.1226 9.44799 12.9555 9.50073 12.7812 9.50073C12.607 9.50073 12.4399 9.44799 12.3166 9.3541C12.1934 9.26021 12.1242 9.13288 12.1242 9.0001C12.1242 8.86733 12.1934 8.73999 12.3166 8.6461L16.4471 5.5001L0.96875 5.5001C0.794702 5.5001 0.627782 5.44742 0.504711 5.35365C0.38164 5.25989 0.3125 5.13271 0.3125 5.0001Z" fill="black"/>
</svg>
